<mxfile host="Electron" modified="2025-05-07T17:26:17.402Z" agent="Mozilla/5.0 (Windows NT 10.0; Win64; x64) AppleWebKit/537.36 (KHTML, like Gecko) draw.io/24.6.1 Chrome/124.0.6367.207 Electron/30.0.6 Safari/537.36" etag="hyfF793s5tTGzWihwNfv" version="24.6.1" type="device">
  <diagram name="Página-1" id="W7OqwgDbiVyCG0NQlKbx">
    <mxGraphModel dx="2514" dy="993" grid="1" gridSize="10" guides="1" tooltips="1" connect="1" arrows="1" fold="1" page="1" pageScale="1" pageWidth="827" pageHeight="1169" math="0" shadow="0">
      <root>
        <mxCell id="0" />
        <mxCell id="1" parent="0" />
        <mxCell id="qLDz19HqjqrYpr-EgUm0-1" value="Gestión de rutas" style="shape=umlFrame;whiteSpace=wrap;html=1;pointerEvents=0;recursiveResize=0;container=1;collapsible=0;width=160;" parent="1" vertex="1">
          <mxGeometry x="200" y="170" width="440" height="1100" as="geometry" />
        </mxCell>
        <mxCell id="qLDz19HqjqrYpr-EgUm0-8" value="Consultar rutas" style="ellipse;whiteSpace=wrap;html=1;" parent="qLDz19HqjqrYpr-EgUm0-1" vertex="1">
          <mxGeometry x="20" y="60" width="130" height="60" as="geometry" />
        </mxCell>
        <mxCell id="qLDz19HqjqrYpr-EgUm0-9" value="Ver detalles de ruta" style="ellipse;whiteSpace=wrap;html=1;" parent="qLDz19HqjqrYpr-EgUm0-1" vertex="1">
          <mxGeometry x="260" y="10" width="130" height="60" as="geometry" />
        </mxCell>
        <mxCell id="qLDz19HqjqrYpr-EgUm0-10" value="Ver puntos de interés" style="ellipse;whiteSpace=wrap;html=1;" parent="qLDz19HqjqrYpr-EgUm0-1" vertex="1">
          <mxGeometry x="20" y="140" width="130" height="60" as="geometry" />
        </mxCell>
        <mxCell id="qLDz19HqjqrYpr-EgUm0-11" value="Descargar GPX" style="ellipse;whiteSpace=wrap;html=1;" parent="qLDz19HqjqrYpr-EgUm0-1" vertex="1">
          <mxGeometry x="20" y="220" width="130" height="60" as="geometry" />
        </mxCell>
        <mxCell id="qLDz19HqjqrYpr-EgUm0-12" value="Valorar ruta" style="ellipse;whiteSpace=wrap;html=1;" parent="qLDz19HqjqrYpr-EgUm0-1" vertex="1">
          <mxGeometry x="260" y="80" width="130" height="60" as="geometry" />
        </mxCell>
        <mxCell id="qLDz19HqjqrYpr-EgUm0-17" value="" style="endArrow=open;startArrow=none;endFill=0;startFill=0;endSize=8;html=1;verticalAlign=bottom;labelBackgroundColor=none;strokeWidth=1;rounded=0;entryX=0.003;entryY=0.61;entryDx=0;entryDy=0;entryPerimeter=0;" parent="qLDz19HqjqrYpr-EgUm0-1" target="qLDz19HqjqrYpr-EgUm0-9" edge="1">
          <mxGeometry width="160" relative="1" as="geometry">
            <mxPoint x="150" y="90" as="sourcePoint" />
            <mxPoint x="316" y="222" as="targetPoint" />
          </mxGeometry>
        </mxCell>
        <mxCell id="qLDz19HqjqrYpr-EgUm0-18" value="" style="endArrow=open;startArrow=none;endFill=0;startFill=0;endSize=8;html=1;verticalAlign=bottom;labelBackgroundColor=none;strokeWidth=1;rounded=0;entryX=0;entryY=0.5;entryDx=0;entryDy=0;" parent="qLDz19HqjqrYpr-EgUm0-1" target="qLDz19HqjqrYpr-EgUm0-12" edge="1">
          <mxGeometry width="160" relative="1" as="geometry">
            <mxPoint x="150" y="90" as="sourcePoint" />
            <mxPoint x="386" y="412" as="targetPoint" />
          </mxGeometry>
        </mxCell>
        <mxCell id="qLDz19HqjqrYpr-EgUm0-23" value="Iniciar sesión" style="ellipse;whiteSpace=wrap;html=1;" parent="qLDz19HqjqrYpr-EgUm0-1" vertex="1">
          <mxGeometry x="20" y="320" width="130" height="60" as="geometry" />
        </mxCell>
        <mxCell id="qLDz19HqjqrYpr-EgUm0-24" value="Comentar ruta" style="ellipse;whiteSpace=wrap;html=1;" parent="qLDz19HqjqrYpr-EgUm0-1" vertex="1">
          <mxGeometry x="260" y="170" width="130" height="60" as="geometry" />
        </mxCell>
        <mxCell id="qLDz19HqjqrYpr-EgUm0-25" value="" style="endArrow=open;startArrow=none;endFill=0;startFill=0;endSize=8;html=1;verticalAlign=bottom;labelBackgroundColor=none;strokeWidth=1;rounded=0;entryX=0;entryY=0.5;entryDx=0;entryDy=0;" parent="qLDz19HqjqrYpr-EgUm0-1" target="qLDz19HqjqrYpr-EgUm0-24" edge="1">
          <mxGeometry width="160" relative="1" as="geometry">
            <mxPoint x="150" y="90" as="sourcePoint" />
            <mxPoint x="250" y="130" as="targetPoint" />
          </mxGeometry>
        </mxCell>
        <mxCell id="qLDz19HqjqrYpr-EgUm0-26" value="" style="endArrow=block;dashed=1;endFill=0;endSize=8;html=1;rounded=0;entryX=0.5;entryY=1;entryDx=0;entryDy=0;exitX=0.493;exitY=-0.052;exitDx=0;exitDy=0;exitPerimeter=0;" parent="qLDz19HqjqrYpr-EgUm0-1" source="qLDz19HqjqrYpr-EgUm0-24" target="qLDz19HqjqrYpr-EgUm0-12" edge="1">
          <mxGeometry width="160" relative="1" as="geometry">
            <mxPoint x="190" y="290" as="sourcePoint" />
            <mxPoint x="350" y="290" as="targetPoint" />
          </mxGeometry>
        </mxCell>
        <mxCell id="qLDz19HqjqrYpr-EgUm0-27" value="Editar perfil" style="ellipse;whiteSpace=wrap;html=1;" parent="qLDz19HqjqrYpr-EgUm0-1" vertex="1">
          <mxGeometry x="20" y="420" width="130" height="60" as="geometry" />
        </mxCell>
        <mxCell id="qLDz19HqjqrYpr-EgUm0-28" value="Crear ruta" style="ellipse;whiteSpace=wrap;html=1;" parent="qLDz19HqjqrYpr-EgUm0-1" vertex="1">
          <mxGeometry x="20" y="520" width="130" height="60" as="geometry" />
        </mxCell>
        <mxCell id="qLDz19HqjqrYpr-EgUm0-32" value="" style="endArrow=open;startArrow=none;endFill=0;startFill=0;endSize=8;html=1;verticalAlign=bottom;labelBackgroundColor=none;strokeWidth=1;rounded=0;entryX=0;entryY=0.5;entryDx=0;entryDy=0;" parent="qLDz19HqjqrYpr-EgUm0-1" target="qLDz19HqjqrYpr-EgUm0-27" edge="1">
          <mxGeometry width="160" relative="1" as="geometry">
            <mxPoint x="-120" y="420" as="sourcePoint" />
            <mxPoint x="350" y="515" as="targetPoint" />
          </mxGeometry>
        </mxCell>
        <mxCell id="qLDz19HqjqrYpr-EgUm0-33" value="" style="endArrow=block;dashed=1;endFill=0;endSize=8;html=1;rounded=0;entryX=0.5;entryY=1;entryDx=0;entryDy=0;exitX=0.5;exitY=0;exitDx=0;exitDy=0;" parent="qLDz19HqjqrYpr-EgUm0-1" source="qLDz19HqjqrYpr-EgUm0-27" target="qLDz19HqjqrYpr-EgUm0-23" edge="1">
          <mxGeometry width="160" relative="1" as="geometry">
            <mxPoint x="250" y="390" as="sourcePoint" />
            <mxPoint x="251" y="363" as="targetPoint" />
          </mxGeometry>
        </mxCell>
        <mxCell id="qLDz19HqjqrYpr-EgUm0-35" value="Editar ruta" style="ellipse;whiteSpace=wrap;html=1;" parent="qLDz19HqjqrYpr-EgUm0-1" vertex="1">
          <mxGeometry x="20" y="590" width="130" height="60" as="geometry" />
        </mxCell>
        <mxCell id="qLDz19HqjqrYpr-EgUm0-36" value="Añadir puntos de interés" style="ellipse;whiteSpace=wrap;html=1;" parent="qLDz19HqjqrYpr-EgUm0-1" vertex="1">
          <mxGeometry x="20" y="660" width="130" height="60" as="geometry" />
        </mxCell>
        <mxCell id="qLDz19HqjqrYpr-EgUm0-37" value="Añadir puntos de peligro" style="ellipse;whiteSpace=wrap;html=1;" parent="qLDz19HqjqrYpr-EgUm0-1" vertex="1">
          <mxGeometry x="20" y="730" width="130" height="60" as="geometry" />
        </mxCell>
        <mxCell id="qLDz19HqjqrYpr-EgUm0-38" value="Añadir ficha" style="ellipse;whiteSpace=wrap;html=1;" parent="qLDz19HqjqrYpr-EgUm0-1" vertex="1">
          <mxGeometry x="20" y="800" width="130" height="60" as="geometry" />
        </mxCell>
        <mxCell id="qLDz19HqjqrYpr-EgUm0-46" value="Validar ruta" style="ellipse;whiteSpace=wrap;html=1;" parent="qLDz19HqjqrYpr-EgUm0-1" vertex="1">
          <mxGeometry x="20" y="890" width="130" height="60" as="geometry" />
        </mxCell>
        <mxCell id="qLDz19HqjqrYpr-EgUm0-47" value="Crear calendario" style="ellipse;whiteSpace=wrap;html=1;" parent="qLDz19HqjqrYpr-EgUm0-1" vertex="1">
          <mxGeometry x="20" y="960" width="130" height="60" as="geometry" />
        </mxCell>
        <mxCell id="qLDz19HqjqrYpr-EgUm0-48" value="Añadir ficha" style="ellipse;whiteSpace=wrap;html=1;" parent="qLDz19HqjqrYpr-EgUm0-1" vertex="1">
          <mxGeometry x="20" y="1030" width="130" height="60" as="geometry" />
        </mxCell>
        <mxCell id="qLDz19HqjqrYpr-EgUm0-49" value="Aprobar perfil" style="ellipse;whiteSpace=wrap;html=1;" parent="qLDz19HqjqrYpr-EgUm0-1" vertex="1">
          <mxGeometry x="250" y="690" width="130" height="60" as="geometry" />
        </mxCell>
        <mxCell id="qLDz19HqjqrYpr-EgUm0-52" value="Eliminar reseña" style="ellipse;whiteSpace=wrap;html=1;" parent="qLDz19HqjqrYpr-EgUm0-1" vertex="1">
          <mxGeometry x="250" y="760" width="130" height="60" as="geometry" />
        </mxCell>
        <mxCell id="qLDz19HqjqrYpr-EgUm0-54" value="&amp;lt;&amp;lt;aplica para diseñadores y profesores&amp;gt;&amp;gt;" style="text;html=1;align=center;verticalAlign=middle;resizable=0;points=[];autosize=1;strokeColor=none;fillColor=none;fontSize=10;" parent="qLDz19HqjqrYpr-EgUm0-1" vertex="1">
          <mxGeometry x="210" y="655" width="210" height="30" as="geometry" />
        </mxCell>
        <mxCell id="r_svVIAcnl6ykYwlZIcj-1" style="edgeStyle=orthogonalEdgeStyle;rounded=0;orthogonalLoop=1;jettySize=auto;html=1;endArrow=open;endFill=0;" edge="1" parent="1" source="qLDz19HqjqrYpr-EgUm0-2" target="qLDz19HqjqrYpr-EgUm0-8">
          <mxGeometry relative="1" as="geometry">
            <Array as="points">
              <mxPoint x="-125" y="260" />
            </Array>
          </mxGeometry>
        </mxCell>
        <mxCell id="r_svVIAcnl6ykYwlZIcj-2" style="edgeStyle=orthogonalEdgeStyle;rounded=0;orthogonalLoop=1;jettySize=auto;html=1;endArrow=open;endFill=0;" edge="1" parent="1" source="qLDz19HqjqrYpr-EgUm0-2" target="qLDz19HqjqrYpr-EgUm0-10">
          <mxGeometry relative="1" as="geometry">
            <Array as="points">
              <mxPoint x="-125" y="340" />
            </Array>
          </mxGeometry>
        </mxCell>
        <mxCell id="r_svVIAcnl6ykYwlZIcj-3" style="edgeStyle=orthogonalEdgeStyle;rounded=0;orthogonalLoop=1;jettySize=auto;html=1;endArrow=open;endFill=0;" edge="1" parent="1" source="qLDz19HqjqrYpr-EgUm0-2" target="qLDz19HqjqrYpr-EgUm0-11">
          <mxGeometry relative="1" as="geometry">
            <Array as="points">
              <mxPoint x="-125" y="420" />
            </Array>
          </mxGeometry>
        </mxCell>
        <mxCell id="qLDz19HqjqrYpr-EgUm0-2" value="Invitado" style="shape=umlActor;verticalLabelPosition=bottom;verticalAlign=top;html=1;" parent="1" vertex="1">
          <mxGeometry x="-140" y="460" width="30" height="60" as="geometry" />
        </mxCell>
        <mxCell id="r_svVIAcnl6ykYwlZIcj-4" style="edgeStyle=orthogonalEdgeStyle;rounded=0;orthogonalLoop=1;jettySize=auto;html=1;endArrow=block;endFill=0;startSize=6;endSize=10;" edge="1" parent="1" source="qLDz19HqjqrYpr-EgUm0-19" target="qLDz19HqjqrYpr-EgUm0-2">
          <mxGeometry relative="1" as="geometry">
            <Array as="points">
              <mxPoint x="35" y="500" />
            </Array>
          </mxGeometry>
        </mxCell>
        <mxCell id="qLDz19HqjqrYpr-EgUm0-19" value="&lt;div&gt;Alumno&lt;/div&gt;&lt;div&gt;(Usuario registrado)&lt;/div&gt;" style="shape=umlActor;verticalLabelPosition=bottom;verticalAlign=top;html=1;" parent="1" vertex="1">
          <mxGeometry x="20" y="555" width="30" height="60" as="geometry" />
        </mxCell>
        <mxCell id="qLDz19HqjqrYpr-EgUm0-31" value="" style="endArrow=open;startArrow=none;endFill=0;startFill=0;endSize=8;html=1;verticalAlign=bottom;labelBackgroundColor=none;strokeWidth=1;rounded=0;entryX=0;entryY=0.5;entryDx=0;entryDy=0;" parent="1" target="qLDz19HqjqrYpr-EgUm0-23" edge="1">
          <mxGeometry width="160" relative="1" as="geometry">
            <mxPoint x="80" y="590" as="sourcePoint" />
            <mxPoint x="220" y="535" as="targetPoint" />
          </mxGeometry>
        </mxCell>
        <mxCell id="r_svVIAcnl6ykYwlZIcj-5" style="edgeStyle=orthogonalEdgeStyle;rounded=0;orthogonalLoop=1;jettySize=auto;html=1;endSize=10;endArrow=block;endFill=0;" edge="1" parent="1">
          <mxGeometry relative="1" as="geometry">
            <mxPoint x="35" y="670" as="targetPoint" />
            <mxPoint x="35" y="800" as="sourcePoint" />
          </mxGeometry>
        </mxCell>
        <mxCell id="qLDz19HqjqrYpr-EgUm0-34" value="&lt;div&gt;Diseñador de rutas&lt;/div&gt;" style="shape=umlActor;verticalLabelPosition=bottom;verticalAlign=top;html=1;" parent="1" vertex="1">
          <mxGeometry x="20" y="810" width="30" height="60" as="geometry" />
        </mxCell>
        <mxCell id="qLDz19HqjqrYpr-EgUm0-39" value="" style="endArrow=open;startArrow=none;endFill=0;startFill=0;endSize=8;html=1;verticalAlign=bottom;labelBackgroundColor=none;strokeWidth=1;rounded=0;entryX=0;entryY=0.5;entryDx=0;entryDy=0;" parent="1" target="qLDz19HqjqrYpr-EgUm0-28" edge="1">
          <mxGeometry width="160" relative="1" as="geometry">
            <mxPoint x="80" y="840" as="sourcePoint" />
            <mxPoint x="280" y="780" as="targetPoint" />
          </mxGeometry>
        </mxCell>
        <mxCell id="qLDz19HqjqrYpr-EgUm0-40" value="" style="endArrow=open;startArrow=none;endFill=0;startFill=0;endSize=8;html=1;verticalAlign=bottom;labelBackgroundColor=none;strokeWidth=1;rounded=0;entryX=0.006;entryY=0.587;entryDx=0;entryDy=0;entryPerimeter=0;" parent="1" target="qLDz19HqjqrYpr-EgUm0-35" edge="1">
          <mxGeometry width="160" relative="1" as="geometry">
            <mxPoint x="80" y="840" as="sourcePoint" />
            <mxPoint x="270" y="820" as="targetPoint" />
          </mxGeometry>
        </mxCell>
        <mxCell id="qLDz19HqjqrYpr-EgUm0-41" value="" style="endArrow=open;startArrow=none;endFill=0;startFill=0;endSize=8;html=1;verticalAlign=bottom;labelBackgroundColor=none;strokeWidth=1;rounded=0;entryX=0;entryY=0.5;entryDx=0;entryDy=0;" parent="1" target="qLDz19HqjqrYpr-EgUm0-36" edge="1">
          <mxGeometry width="160" relative="1" as="geometry">
            <mxPoint x="80" y="840" as="sourcePoint" />
            <mxPoint x="270" y="830" as="targetPoint" />
          </mxGeometry>
        </mxCell>
        <mxCell id="qLDz19HqjqrYpr-EgUm0-43" value="" style="endArrow=open;startArrow=none;endFill=0;startFill=0;endSize=8;html=1;verticalAlign=bottom;labelBackgroundColor=none;strokeWidth=1;rounded=0;entryX=-0.031;entryY=0.426;entryDx=0;entryDy=0;entryPerimeter=0;" parent="1" target="qLDz19HqjqrYpr-EgUm0-37" edge="1">
          <mxGeometry width="160" relative="1" as="geometry">
            <mxPoint x="80" y="840" as="sourcePoint" />
            <mxPoint x="260" y="900" as="targetPoint" />
          </mxGeometry>
        </mxCell>
        <mxCell id="qLDz19HqjqrYpr-EgUm0-44" value="" style="endArrow=open;startArrow=none;endFill=0;startFill=0;endSize=8;html=1;verticalAlign=bottom;labelBackgroundColor=none;strokeWidth=1;rounded=0;entryX=0;entryY=0.5;entryDx=0;entryDy=0;" parent="1" target="qLDz19HqjqrYpr-EgUm0-38" edge="1">
          <mxGeometry width="160" relative="1" as="geometry">
            <mxPoint x="80" y="840" as="sourcePoint" />
            <mxPoint x="260" y="960" as="targetPoint" />
          </mxGeometry>
        </mxCell>
        <mxCell id="r_svVIAcnl6ykYwlZIcj-8" style="edgeStyle=orthogonalEdgeStyle;rounded=0;orthogonalLoop=1;jettySize=auto;html=1;endArrow=block;endFill=0;endSize=10;" edge="1" parent="1">
          <mxGeometry relative="1" as="geometry">
            <mxPoint x="35" y="910" as="targetPoint" />
            <mxPoint x="35" y="1120" as="sourcePoint" />
          </mxGeometry>
        </mxCell>
        <mxCell id="qLDz19HqjqrYpr-EgUm0-45" value="&lt;div&gt;Profesor&lt;/div&gt;" style="shape=umlActor;verticalLabelPosition=bottom;verticalAlign=top;html=1;" parent="1" vertex="1">
          <mxGeometry x="20" y="1130" width="30" height="60" as="geometry" />
        </mxCell>
        <mxCell id="r_svVIAcnl6ykYwlZIcj-9" style="edgeStyle=orthogonalEdgeStyle;rounded=0;orthogonalLoop=1;jettySize=auto;html=1;endSize=10;endArrow=block;endFill=0;" edge="1" parent="1">
          <mxGeometry relative="1" as="geometry">
            <mxPoint x="40" y="1220" as="targetPoint" />
            <mxPoint x="685" y="1040" as="sourcePoint" />
            <Array as="points">
              <mxPoint x="685" y="1330" />
              <mxPoint x="40" y="1330" />
            </Array>
          </mxGeometry>
        </mxCell>
        <mxCell id="qLDz19HqjqrYpr-EgUm0-50" value="&lt;div&gt;Administrador&lt;/div&gt;" style="shape=umlActor;verticalLabelPosition=bottom;verticalAlign=top;html=1;" parent="1" vertex="1">
          <mxGeometry x="670" y="950" width="30" height="60" as="geometry" />
        </mxCell>
        <mxCell id="qLDz19HqjqrYpr-EgUm0-53" value="" style="endArrow=open;startArrow=none;endFill=0;startFill=0;endSize=8;html=1;verticalAlign=bottom;labelBackgroundColor=none;strokeWidth=1;rounded=0;entryX=1;entryY=0.5;entryDx=0;entryDy=0;" parent="1" target="qLDz19HqjqrYpr-EgUm0-49" edge="1">
          <mxGeometry width="160" relative="1" as="geometry">
            <mxPoint x="660" y="980" as="sourcePoint" />
            <mxPoint x="800" y="1080" as="targetPoint" />
          </mxGeometry>
        </mxCell>
        <mxCell id="qLDz19HqjqrYpr-EgUm0-55" value="" style="endArrow=open;startArrow=none;endFill=0;startFill=0;endSize=8;html=1;verticalAlign=bottom;labelBackgroundColor=none;strokeWidth=1;rounded=0;entryX=1.001;entryY=0.426;entryDx=0;entryDy=0;entryPerimeter=0;" parent="1" target="qLDz19HqjqrYpr-EgUm0-52" edge="1">
          <mxGeometry width="160" relative="1" as="geometry">
            <mxPoint x="660" y="980" as="sourcePoint" />
            <mxPoint x="580" y="990" as="targetPoint" />
          </mxGeometry>
        </mxCell>
        <mxCell id="qLDz19HqjqrYpr-EgUm0-59" value="" style="endArrow=open;startArrow=none;endFill=0;startFill=0;endSize=8;html=1;verticalAlign=bottom;labelBackgroundColor=none;strokeWidth=1;rounded=0;entryX=0.001;entryY=0.587;entryDx=0;entryDy=0;entryPerimeter=0;" parent="1" target="qLDz19HqjqrYpr-EgUm0-46" edge="1">
          <mxGeometry width="160" relative="1" as="geometry">
            <mxPoint x="80" y="1170" as="sourcePoint" />
            <mxPoint x="40" y="1150" as="targetPoint" />
          </mxGeometry>
        </mxCell>
        <mxCell id="qLDz19HqjqrYpr-EgUm0-60" value="" style="endArrow=open;startArrow=none;endFill=0;startFill=0;endSize=8;html=1;verticalAlign=bottom;labelBackgroundColor=none;strokeWidth=1;rounded=0;entryX=0;entryY=0.5;entryDx=0;entryDy=0;" parent="1" target="qLDz19HqjqrYpr-EgUm0-47" edge="1">
          <mxGeometry width="160" relative="1" as="geometry">
            <mxPoint x="80" y="1170" as="sourcePoint" />
            <mxPoint x="40" y="1130" as="targetPoint" />
          </mxGeometry>
        </mxCell>
        <mxCell id="qLDz19HqjqrYpr-EgUm0-61" value="" style="endArrow=open;startArrow=none;endFill=0;startFill=0;endSize=8;html=1;verticalAlign=bottom;labelBackgroundColor=none;strokeWidth=1;rounded=0;entryX=0;entryY=0.5;entryDx=0;entryDy=0;" parent="1" target="qLDz19HqjqrYpr-EgUm0-48" edge="1">
          <mxGeometry width="160" relative="1" as="geometry">
            <mxPoint x="80" y="1170" as="sourcePoint" />
            <mxPoint x="10" y="1140" as="targetPoint" />
          </mxGeometry>
        </mxCell>
      </root>
    </mxGraphModel>
  </diagram>
</mxfile>
